
<svg xmlns="http://www.w3.org/2000/svg" width="250" height="53" viewBox="0 0 250 53">
  <g fill="none" fill-rule="evenodd">
    <path fill="#2B5CD8" d="M246.771751 48.8566384L217.95678 48.8566384 217.95678 5.06567797 233.212429 5.06567797C241.372034 5.06567797 248.00904 11.7351695 248.00904 19.9314972 248.00904 25.0967514 245.271751 29.9484463 240.856497 32.6362994L233.487853 17.9738701 231.708192 18.8679379 246.771751 48.8566384zM250.000565 19.9314972C250.000565 10.6221751 242.483616 3.07556497 233.212429 3.07556497L215.965254 3.07556497 215.965254 50.8467514 250.000565 50.8467514 241.74774 34.4286723C246.681356 31.4936441 250.000565 26.1080508 250.000565 19.9314972L250.000565 19.9314972zM188.886017 1.45367232C175.234887 1.45367232 164.168503 12.5200565 164.168503 26.1711864 164.168503 39.8223164 175.234887 50.8887006 188.886017 50.8887006 202.537147 50.8887006 213.603531 39.8223164 213.603531 26.1711864 213.603531 12.5200565 202.537147 1.45367232 188.886017 1.45367232M188.886017 3.49887006C201.388842 3.49887006 211.558333 13.669774 211.558333 26.1711864 211.558333 38.6725989 201.388842 48.8435028 188.886017 48.8435028 176.384605 48.8435028 166.213701 38.6725989 166.213701 26.1711864 166.213701 13.669774 176.384605 3.49887006 188.886017 3.49887006M161.700424 2.09096045L127.802119 2.09096045 127.802119 22.6389831 134.780932 22.6389831 134.780932 50.1135593 154.72161 50.1135593 154.72161 22.6389831 161.700424 22.6389831 161.700424 2.09096045zM159.706073 4.09237288L159.706073 20.6375706 152.72726 20.6375706 152.72726 48.1121469 136.775282 48.1121469 136.775282 20.6375706 129.796469 20.6375706 129.796469 4.09237288 159.706073 4.09237288zM101.292232 48.8024011C88.7894068 48.8024011 78.6199153 38.6314972 78.6199153 26.1300847 78.6199153 13.6272599 88.7894068 3.45776836 101.292232 3.45776836 113.511158 3.45776836 123.498446 13.1752825 123.943362 25.2882768L101.519633 25.2882768 101.519633 27.3320621 123.932062 27.3320621C123.304944 39.2769774 113.389689 48.8024011 101.292232 48.8024011M101.292232 1.41257062C87.6411017 1.41257062 76.5747175 12.4789548 76.5747175 26.1300847 76.5747175 39.7812147 87.6411017 50.8475989 101.292232 50.8475989 114.943362 50.8475989 126.009746 39.7812147 126.009746 26.1300847 126.009746 12.4789548 114.943362 1.41257062 101.292232 1.41257062M41.5419492 48.1125706L41.5419492 4.09138418 71.4529661 4.09138418 71.4529661 16.9628531 56.084322 16.9628531 56.084322 18.9642655 71.4529661 18.9642655 71.4529661 32.9713277 56.084322 32.9713277 56.084322 34.9713277 71.4529661 34.9713277 71.4529661 48.1125706 41.5419492 48.1125706zM39.5475989 50.1139831L73.445904 50.1139831 73.445904 2.09138418 39.5475989 2.09138418 39.5475989 50.1139831zM28.8468927 43.6724576C25.4824859 47.1555085 20.8652542 49.0227401 15.8172316 48.9266949 11.0728814 48.8362994 6.4980226 47.0213277 2.8299435 43.7896893L8.91892655 37.4846045 8.92033898 37.4860169 28.0418079 17.6837571C31.3963277 21.2360169 33.3878531 25.7303672 33.6435028 30.4676554 33.9132768 35.5001412 32.209887 40.1894068 28.8468927 43.6724576M8.09689266 8.64985876C11.4824859 5.14279661 16.0601695 3.39985876 20.7649718 3.39985876 25.4358757 3.39985876 30.2324859 5.11878531 34.1124294 8.53262712L8.88644068 34.654096C5.53050847 31.1018362 3.5559322 26.5933616 3.30028249 21.854661 3.02909605 16.8221751 4.73248588 12.1329096 8.09689266 8.64985876M29.4245763 16.2529661L36.9429379 8.46624294 36.2268362 7.77556497C27.6533898-.505508475 14.390678-.734322034 6.66468927 7.2670904 2.91186441 11.1526836 1.01214689 16.3716102 1.31299435 21.9620056 1.59548023 27.2021186 3.80310734 32.1653955 7.51920904 36.0693503L-.000564971751 43.8560734.715536723 44.5467514C4.85960452 48.5495763 10.209887 50.8108757 15.7805085 50.9153955 15.9161017 50.9196328 16.0502825 50.9196328 16.1858757 50.9196328 21.6251412 50.9196328 26.6180791 48.8461864 30.279096 45.055226 34.0305085 41.1696328 35.9316384 35.9507062 35.630791 30.3603107 35.3483051 25.1201977 33.140678 20.1569209 29.4245763 16.2529661"/>
  </g>
</svg>
